<?xml version="1.0" encoding="utf-8"?>
<!-- Generator: Adobe Illustrator 25.0.0, SVG Export Plug-In . SVG Version: 6.00 Build 0)  -->
<svg version="1.1"
	 id="svg8054" xmlns:cc="http://creativecommons.org/ns#" xmlns:dc="http://purl.org/dc/elements/1.1/" xmlns:rdf="http://www.w3.org/1999/02/22-rdf-syntax-ns#" xmlns:svg="http://www.w3.org/2000/svg"
	 xmlns="http://www.w3.org/2000/svg" xmlns:xlink="http://www.w3.org/1999/xlink" x="0px" y="0px" viewBox="0 0 119.4 53.8"
	 style="enable-background:new 0 0 119.4 53.8;" xml:space="preserve">
<style type="text/css">
	.st0{fill:#E50B14;}
	.st1{fill:#FFFFFF;}
</style>
<g id="layer1" transform="translate(887.14288,284.1031)">
	<g id="g7995" transform="matrix(1.7147021,0,0,1.7147021,-1454.2609,-379.792)">
		<path id="path4936" d="M404.3,57h66.4v-1.2h-66.4V57z"/>
		<path id="path4938" d="M404.3,87.2h66.4V86h-66.4V87.2z"/>
		<g id="g4948" transform="matrix(1.25,0,0,-1.25,434.20201,80.494595)">
			<path id="path4950" d="M-16.6,4V1.3c0-2.3-1.1-3.4-3.4-3.4h-0.6c-2.3,0-3.4,1.1-3.4,3.4v2.6h2V1.1c0-0.9,0.4-1.4,1.4-1.4h0.4
				c0.9,0,1.4,0.4,1.4,1.4v2.8c0,0.9-0.3,1.3-0.9,1.8l-2.6,1.9c-1.4,1-1.8,1.9-1.8,3.4v2.2c0,2.3,1.1,3.4,3.4,3.4h0.5
				c2.3,0,3.4-1.1,3.4-3.4v-1.6h-2v1.7c0,0.9-0.4,1.4-1.4,1.4h-0.4c-0.9,0-1.4-0.4-1.4-1.4V11c0-0.9,0.3-1.3,0.9-1.8l2.5-1.8
				C-17,6.4-16.6,5.5-16.6,4"/>
		</g>
		<g id="g4952" transform="matrix(1.25,0,0,-1.25,439.23338,89.75597)">
			<path id="path4954" d="M-17.4,5.4v16.4h-2.8v1.9h7.6v-1.9h-2.8V5.4H-17.4z"/>
		</g>
		<g id="g4956" transform="matrix(1.25,0,0,-1.25,459.74488,84.674345)">
			<path id="path4958" d="M-20.6,4.6c0-2.3-1.1-3.4-3.4-3.4h-0.7c-2.3,0-3.4,1.1-3.4,3.4v15.1h2.1V4.5c0-0.9,0.4-1.4,1.4-1.4h0.5
				c0.9,0,1.4,0.4,1.4,1.4v15.2h2.1V4.6z"/>
		</g>
		<g id="g4960" transform="matrix(1.25,0,0,-1.25,465.11401,86.76422)">
			<path id="path4962" d="M-21.5,5h1.3c1.4,0,2.1,0.7,2.1,2.1v10.3c0,1.4-0.7,2.1-2.1,2.1h-1.3V5z M-23.6,21.4h3.5
				c2.8,0,4.1-1.3,4.1-4.1V7.1c0-2.8-1.3-4.1-4.1-4.1h-3.5C-23.6,3-23.6,21.4-23.6,21.4z"/>
		</g>
		<path id="path4964" d="M449.2,83h-2.6V60h2.6V83z"/>
		<g id="g4966" transform="matrix(1.25,0,0,-1.25,487.25476,63.81547)">
			<path id="path4968" d="M-25,1.3h-0.6c-0.9,0-1.4-0.4-1.4-1.4v-12.1c0-0.9,0.4-1.4,1.4-1.4h0.6c0.9,0,1.4,0.4,1.4,1.4v12.1
				C-23.7,0.8-24.1,1.3-25,1.3 M-25-15.5h-0.8c-2.3,0-3.4,1.1-3.4,3.4v11.9c0,2.3,1.1,3.4,3.4,3.4h0.8c2.3,0,3.4-1.1,3.4-3.4v-11.9
				C-21.6-14.4-22.7-15.5-25-15.5"/>
		</g>
		<g id="g4970" transform="matrix(1.25,0,0,-1.25,505.62513,80.494595)">
			<path id="path4972" d="M-28,4V1.3c0-2.3-1.1-3.4-3.4-3.4H-32c-2.3,0-3.4,1.1-3.4,3.4v2.6h2V1.1c0-0.9,0.4-1.4,1.4-1.4h0.4
				c0.9,0,1.4,0.4,1.4,1.4v2.8c0,0.9-0.3,1.3-0.9,1.8l-2.6,1.9c-1.4,1-1.8,1.9-1.8,3.4v2.2c0,2.3,1.1,3.4,3.4,3.4h0.5
				c2.3,0,3.4-1.1,3.4-3.4v-1.6h-2v1.7c0,0.9-0.4,1.4-1.4,1.4h-0.4c-0.9,0-1.4-0.4-1.4-1.4V11c0-0.9,0.3-1.3,0.9-1.8l2.5-1.8
				C-28.4,6.4-28,5.5-28,4"/>
		</g>
		<path id="path4974" class="st0" d="M330.7,87.2h69.6V55.8h-69.6V87.2z"/>
		<g id="g4976" transform="matrix(1.25,0,0,-1.25,404.49326,66.292595)">
			<path id="path4978" class="st1" d="M-11.8,1.7h-3v-4.1h3v-3.4h-3V-10h3v-3.3h-6.3V3.3l-2.6-16.6l-3.9,0c0,0-2,11.8-2,11.8v0
				c0.3-1.9-0.9-3.9-1.9-4.7l2.1-7.1h0h0l0,0h0h-3.2h0l-1.6,6.1L-32-7.4v-6h0h0v0h0l-6.3,0l-0.4,2.8h-2.6l-0.4-2.8H-48v8.8l-1.5-8.8
				h-1.8l-1.5,8.8v-8.8h-3.3V5h4.2l1.5-9.5l1.5,9.5h4.2v-16.9L-42.2,5l4.4,0l2.4-16.3l0,16.3c0,0,3.3,0,3.4,0c3,0,4.4-2.2,4.8-3
				l-0.4,3h3.4l1.5-11.2L-21.1,5h9.3V1.7z"/>
		</g>
		<g id="g4980" transform="matrix(1.25,0,0,-1.25,372.96213,66.16747)">
			<path id="path4982" class="st0" d="M-6.8,1.7C-6.8,1.7-6.8,1.7-6.8,1.7l0-5.9c0.3,0,0.5,0.1,0.8,0.2c0.8,0.4,1.4,1.3,1.4,2.8
				C-4.6,1.6-6.5,1.7-6.8,1.7"/>
		</g>
		<g id="g4984" transform="matrix(1.25,0,0,-1.25,359.09314,80.76747)">
			<path id="path4986" class="st0" d="M-4.5,4h1.9l-0.9,7.8L-4.5,4z"/>
		</g>
		<g id="g4988" transform="matrix(1.25,0,0,-1.25,414.93101,89.741345)">
			<path id="path4990" class="st1" d="M-13.5,5.4h-6.1v18.4h3.3V8.7l2.8,0V5.4z"/>
		</g>
	</g>
</g>
</svg>
