<?xml version="1.0" encoding="utf-8"?>
<!-- Generator: Adobe Illustrator 25.0.0, SVG Export Plug-In . SVG Version: 6.00 Build 0)  -->
<svg version="1.1"
	 id="svg8054" xmlns:cc="http://creativecommons.org/ns#" xmlns:dc="http://purl.org/dc/elements/1.1/" xmlns:rdf="http://www.w3.org/1999/02/22-rdf-syntax-ns#" xmlns:svg="http://www.w3.org/2000/svg"
	 xmlns="http://www.w3.org/2000/svg" xmlns:xlink="http://www.w3.org/1999/xlink" x="0px" y="0px" viewBox="0 0 120.6 53.8"
	 style="enable-background:new 0 0 120.6 53.8;" xml:space="preserve">
<style type="text/css">
	.st0{fill:#E50B14;}
	.st1{fill:#FFFFFF;}
</style>
<g id="layer1" transform="translate(887.14288,284.1031)">
	<g id="g7995" transform="matrix(1.7147021,0,0,1.7147021,-1454.2609,-379.792)">
		<path id="path4936" d="M334.7,57h66.4v-1.2h-66.4V57z"/>
		<path id="path4938" d="M334.7,87.2h66.4V86h-66.4V87.2z"/>
		<g id="g4948" transform="matrix(1.25,0,0,-1.25,434.20201,80.494595)">
			<path id="path4950" d="M-72.3,4V1.3c0-2.3-1.1-3.4-3.4-3.4h-0.6c-2.3,0-3.4,1.1-3.4,3.4v2.6h2V1.1c0-0.9,0.4-1.4,1.4-1.4h0.4
				c0.9,0,1.4,0.4,1.4,1.4v2.8c0,0.9-0.3,1.3-0.9,1.8l-2.6,1.9c-1.4,1-1.8,1.9-1.8,3.4v2.2c0,2.3,1.1,3.4,3.4,3.4h0.5
				c2.3,0,3.4-1.1,3.4-3.4v-1.6h-2v1.7c0,0.9-0.4,1.4-1.4,1.4h-0.4c-0.9,0-1.4-0.4-1.4-1.4V11c0-0.9,0.3-1.3,0.9-1.8l2.5-1.8
				C-72.7,6.4-72.3,5.5-72.3,4"/>
		</g>
		<g id="g4952" transform="matrix(1.25,0,0,-1.25,439.23338,89.75597)">
			<path id="path4954" d="M-73.1,5.4v16.4h-2.8v1.9h7.6v-1.9H-71V5.4H-73.1z"/>
		</g>
		<g id="g4956" transform="matrix(1.25,0,0,-1.25,459.74488,84.674345)">
			<path id="path4958" d="M-76.3,4.6c0-2.3-1.1-3.4-3.4-3.4h-0.7c-2.3,0-3.4,1.1-3.4,3.4v15.1h2.1V4.5c0-0.9,0.4-1.4,1.4-1.4h0.5
				c0.9,0,1.4,0.4,1.4,1.4v15.2h2.1V4.6z"/>
		</g>
		<g id="g4960" transform="matrix(1.25,0,0,-1.25,465.11401,86.76422)">
			<path id="path4962" d="M-77.2,5h1.3c1.4,0,2.1,0.7,2.1,2.1v10.3c0,1.4-0.7,2.1-2.1,2.1h-1.3V5z M-79.3,21.4h3.5
				c2.8,0,4.1-1.3,4.1-4.1V7.1c0-2.8-1.3-4.1-4.1-4.1h-3.5C-79.3,3-79.3,21.4-79.3,21.4z"/>
		</g>
		<path id="path4964" d="M379.6,83H377V60h2.6V83z"/>
		<g id="g4966" transform="matrix(1.25,0,0,-1.25,487.25476,63.81547)">
			<path id="path4968" d="M-80.7,1.3h-0.6c-0.9,0-1.4-0.4-1.4-1.4v-12.1c0-0.9,0.4-1.4,1.4-1.4h0.6c0.9,0,1.4,0.4,1.4,1.4v12.1
				C-79.4,0.8-79.8,1.3-80.7,1.3 M-80.7-15.5h-0.8c-2.3,0-3.4,1.1-3.4,3.4v11.9c0,2.3,1.1,3.4,3.4,3.4h0.8c2.3,0,3.4-1.1,3.4-3.4
				v-11.9C-77.3-14.4-78.4-15.5-80.7-15.5"/>
		</g>
		<g id="g4970" transform="matrix(1.25,0,0,-1.25,505.62513,80.494595)">
			<path id="path4972" d="M-83.7,4V1.3c0-2.3-1.1-3.4-3.4-3.4h-0.6C-89.9-2.1-91-1-91,1.2v2.6h2V1.1c0-0.9,0.4-1.4,1.4-1.4h0.4
				c0.9,0,1.4,0.4,1.4,1.4v2.8c0,0.9-0.3,1.3-0.9,1.8l-2.6,1.9c-1.4,1-1.8,1.9-1.8,3.4v2.2c0,2.3,1.1,3.4,3.4,3.4h0.5
				c2.3,0,3.4-1.1,3.4-3.4v-1.6h-2v1.7c0,0.9-0.4,1.4-1.4,1.4h-0.4c-0.9,0-1.4-0.4-1.4-1.4V11c0-0.9,0.3-1.3,0.9-1.8l2.5-1.8
				C-84.1,6.4-83.7,5.5-83.7,4"/>
		</g>
		<path id="path4974" class="st0" d="M261.1,87.2h69.6V55.8h-69.6V87.2z"/>
		<g id="g4976" transform="matrix(1.25,0,0,-1.25,404.49326,66.292595)">
			<path id="path4978" class="st1" d="M-67.5,1.7h-3v-4.1h3v-3.4h-3V-10h3v-3.3h-6.3V3.3l-2.6-16.6l-3.9,0c0,0-2,11.8-2,11.8v0
				c0.3-1.9-0.9-3.9-1.9-4.7l2.1-7.1h0h0l0,0h0h-3.2h0l-1.6,6.1l-0.8-0.1v-6h0h0v0h0l-6.3,0l-0.4,2.8h-2.6l-0.4-2.8h-6.4v8.8
				l-1.5-8.8h-1.8l-1.5,8.8v-8.8h-3.3V5h4.2l1.5-9.5l1.5,9.5h4.2v-16.9L-97.9,5l4.4,0l2.4-16.3L-91,5c0,0,3.3,0,3.4,0
				c3,0,4.4-2.2,4.8-3l-0.4,3h3.4l1.5-11.2L-76.8,5h9.3V1.7z"/>
		</g>
		<g id="g4980" transform="matrix(1.25,0,0,-1.25,372.96213,66.16747)">
			<path id="path4982" class="st0" d="M-62.5,1.7C-62.5,1.7-62.5,1.7-62.5,1.7l0-5.9c0.3,0,0.5,0.1,0.8,0.2c0.8,0.4,1.4,1.3,1.4,2.8
				C-60.3,1.6-62.2,1.7-62.5,1.7"/>
		</g>
		<g id="g4984" transform="matrix(1.25,0,0,-1.25,359.09314,80.76747)">
			<path id="path4986" class="st0" d="M-60.2,4h1.9l-0.9,7.8L-60.2,4z"/>
		</g>
		<g id="g4988" transform="matrix(1.25,0,0,-1.25,414.93101,89.741345)">
			<path id="path4990" class="st1" d="M-69.2,5.4h-6.1v18.4h3.3V8.7l2.8,0V5.4z"/>
		</g>
	</g>
</g>
</svg>
